:FULLY-SPECIFIED
:FORCE-ALL-JOINTS-BE-3DOF
:DEGREES
2650
root -1.59571 15.1243 -28.6611 1181.38 -76.6426 -104.744
lfemur -41.1482 26.0186 -6.30366
ltibia 71.37 0 0
lfoot 2.99776 10.5226 0
ltoes -12.1277 0 0
rfemur -36.502 -22.0776 24.1772
rtibia 68.0969 0 0
rfoot -23.6529 -9.47881 0
rtoes -6.99913 0 0
lowerback 17.1175 3.45614 0.0905009
upperback -0.672223 4.7656 2.03336
thorax -10.3336 2.31447 1.02227
lowerneck -3.59413 9.28109 1.07809
upperneck 5.13467 12.422 0.434103
head 1.98865 6.24095 0.357447
lclavicle 3.05286e-15 1.04329e-14 0
lhumerus 55.9114 -21.2455 47.3817
lradius 111.345 0 0
lwrist -12.5927 0 0
lhand -37.3333 387.234 0
lfingers 7.12502 0 0
lthumb -10.3897 -662.899 0
rclavicle 3.05286e-15 1.04329e-14 0
rhumerus -26.055 59.5753 -87.2677
rradius 99.3576 0 0
rwrist -41.4623 0 0
rhand -7.32204 -384.914 0
rfingers 7.12502 0 0
rthumb 18.5577 305.992 0
2651
root -1.72992 15.1142 -28.6283 1185.65 -75.6952 -109.224
lfemur -40.9646 26.3736 -6.04128
ltibia 69.7563 0 0
lfoot 3.94876 10.3798 0
ltoes -11.1906 0 0
rfemur -36.045 -21.8313 23.7935
rtibia 68.3935 0 0
rfoot -23.9089 -9.70295 0
rtoes -7.15108 0 0
lowerback 17.0558 3.59665 0.240851
upperback -0.686794 4.9755 1.95934
thorax -10.2987 2.4044 0.806541
lowerneck -3.53138 9.37947 1.2024
upperneck 5.29179 12.5448 0.378051
head 2.05605 6.3012 0.326796
lclavicle 3.87284e-15 1.00899e-14 0
lhumerus 52.5514 -19.7134 49.3434
lradius 111.169 0 0
lwrist -13.3551 0 0
lhand -37.6061 387.25 0
lfingers 7.12502 0 0
lthumb -10.6532 -662.903 0
rclavicle 3.87284e-15 1.00899e-14 0
rhumerus -27.561 59.4516 -88.1652
rradius 100.445 0 0
rwrist -44.1542 0 0
rhand -7.01488 -384.678 0
rfingers 7.12502 0 0
rthumb 18.8531 306.257 0
2652
root -1.86386 15.1036 -28.5955 1189.91 -74.7206 -113.687
lfemur -40.787 26.7324 -5.784
ltibia 68.1441 0 0
lfoot 4.88772 10.2402 0
ltoes -10.2668 0 0
rfemur -35.5914 -21.5828 23.4069
rtibia 68.703 0 0
rfoot -24.1638 -9.93562 0
rtoes -7.29815 0 0
lowerback 16.9944 3.73712 0.389369
upperback -0.702339 5.185 1.8853
thorax -10.2651 2.49424 0.591855
lowerneck -3.46579 9.47068 1.32164
upperneck 5.44823 12.6576 0.328093
head 2.124 6.35636 0.298412
lclavicle 4.68908e-15 9.7456e-15 0
lhumerus 49.1556 -18.1876 51.332
lradius 110.983 0 0
lwrist -14.0922 0 0
lhand -37.8675 387.272 0
lfingers 7.12502 0 0
lthumb -10.9056 -662.903 0
rclavicle 4.68908e-15 9.7456e-15 0
rhumerus -29.0488 59.3183 -89.0492
rradius 101.535 0 0
rwrist -46.8403 0 0
rhand -6.70863 -384.445 0
rfingers 7.12502 0 0
rthumb 19.1476 306.519 0
2653
root -1.99719 15.0926 -28.5628 1194.14 -73.7257 -118.121
lfemur -40.6168 27.0939 -5.53226
ltibia 66.54 0 0
lfoot 5.81155 10.1033 0
ltoes -9.36021 0 0
rfemur -35.1423 -21.3333 23.0197
rtibia 69.0233 0 0
rfoot -24.4171 -10.1758 0
rtoes -7.44072 0 0
lowerback 16.9336 3.87709 0.535682
upperback -0.718886 5.39347 1.81154
thorax -10.2331 2.58371 0.378903
lowerneck -3.39795 9.55524 1.43597
upperneck 5.6035 12.761 0.283795
head 2.19218 6.40683 0.272159
lclavicle 5.49661e-15 9.40041e-15 0
lhumerus 45.74 -16.6719 53.3377
lradius 110.789 0 0
lwrist -14.8041 0 0
lhand -38.1179 387.3 0
lfingers 7.12502 0 0
lthumb -11.1474 -662.898 0
rclavicle 5.49661e-15 9.40041e-15 0
rhumerus -30.5163 59.1768 -89.9189
rradius 102.624 0 0
rwrist -49.5126 0 0
rhand -6.40374 -384.218 0
rfingers 7.12502 0 0
rthumb 19.4408 306.776 0
2654
root -2.12963 15.0811 -28.5303 1198.33 -72.7177 -122.511
lfemur -40.4552 27.4572 -5.28654
ltibia 64.9506 0 0
lfoot 6.71714 9.96856 0
ltoes -8.47506 0 0
rfemur -34.699 -21.0836 22.6336
rtibia 69.3523 0 0
rfoot -24.6685 -10.4226 0
rtoes -7.57916 0 0
lowerback 16.8734 4.0161 0.679419
upperback -0.736462 5.60027 1.73838
thorax -10.2029 2.67252 0.168374
lowerneck -3.32845 9.63368 1.54558
upperneck 5.75712 12.8559 0.244722
head 2.26027 6.45302 0.247904
lclavicle 6.29041e-15 9.05474e-15 0
lhumerus 42.3207 -15.17 55.351
lradius 110.586 0 0
lwrist -15.4909 0 0
lhand -38.3577 387.331 0
lfingers 7.12502 0 0
lthumb -11.379 -662.889 0
rclavicle 6.29041e-15 9.05474e-15 0
rhumerus -31.9612 59.0286 -90.7737
rradius 103.708 0 0
rwrist -52.1629 0 0
rhand -6.10068 -383.995 0
rfingers 7.12502 0 0
rthumb 19.7322 307.027 0
2655
root -2.26087 15.0693 -28.4982 1202.47 -71.7034 -126.842
lfemur -40.3033 27.8212 -5.04731
ltibia 63.3823 0 0
lfoot 7.60141 9.83557 0
ltoes -7.61542 0 0
rfemur -34.2628 -20.8348 22.2508
rtibia 69.6878 0 0
rfoot -24.9177 -10.675 0
rtoes -7.71386 0 0
lowerback 16.8141 4.1537 0.820209
upperback -0.755096 5.80475 1.66614
thorax -10.1747 2.76038 -0.0390425
lowerneck -3.25787 9.7065 1.65061
upperneck 5.9086 12.9431 0.21044
head 2.32793 6.49533 0.225511
lclavicle 7.06551e-15 8.70902e-15 0
lhumerus 38.9136 -13.6859 57.3622
lradius 110.377 0 0
lwrist -16.1529 0 0
lhand -38.5874 387.366 0
lfingers 7.12502 0 0
lthumb -11.6009 -662.877 0
rclavicle 7.06551e-15 8.70902e-15 0
rhumerus -33.3813 58.8748 -91.613
rradius 104.782 0 0
rwrist -54.7833 0 0
rhand -5.79989 -383.779 0
rfingers 7.12502 0 0
rthumb 20.0215 307.273 0
2656
root -2.39058 15.0571 -28.4665 1206.53 -70.69 -131.102
lfemur -40.1624 28.185 -4.81502
ltibia 61.8419 0 0
lfoot 8.46126 9.7038 0
ltoes -6.78538 0 0
rfemur -33.835 -20.588 21.8732
rtibia 70.0275 0 0
rfoot -25.1641 -10.932 0
rtoes -7.84518 0 0
lowerback 16.756 4.28945 0.95768
upperback -0.774814 6.00628 1.59512
thorax -10.1487 2.84703 -0.242657
lowerneck -3.1868 9.77423 1.75125
upperneck 6.05745 13.0233 0.180514
head 2.39483 6.53417 0.204846
lclavicle 7.8169e-15 8.36365e-15 0
lhumerus 35.5346 -12.2232 59.3615
lradius 110.161 0 0
lwrist -16.7902 0 0
lhand -38.8075 387.403 0
lfingers 7.12502 0 0
lthumb -11.8135 -662.862 0
rclavicle 7.8169e-15 8.36365e-15 0
rhumerus -34.7744 58.7169 -92.4362
rradius 105.843 0 0
rwrist -57.3654 0 0
rhand -5.50185 -383.57 0
rfingers 7.12502 0 0
rthumb 20.308 307.511 0
2657
root -2.51848 15.0446 -28.4353 1210.52 -69.6844 -135.274
lfemur -40.0337 28.5476 -4.59014
ltibia 60.3356 0 0
lfoot 9.2936 9.57278 0
ltoes -5.98904 0 0
rfemur -33.4167 -20.344 21.5029
rtibia 70.3694 0 0
rfoot -25.4075 -11.1926 0
rtoes -7.97351 0 0
lowerback 16.6992 4.42287 1.09146
upperback -0.795645 6.20423 1.52564
thorax -10.1252 2.93217 -0.44178
lowerneck -3.11583 9.83739 1.84766
upperneck 6.2032 13.0973 0.15451
head 2.46065 6.56993 0.185774
lclavicle 8.53959e-15 8.01908e-15 0
lhumerus 32.1999 -10.7858 61.3393
lradius 109.94 0 0
lwrist -17.4029 0 0
lhand -39.0184 387.443 0
lfingers 7.12502 0 0
lthumb -12.0172 -662.845 0
rclavicle 8.53959e-15 8.01908e-15 0
rhumerus -36.1382 58.5561 -93.2425
rradius 106.885 0 0
rwrist -59.9014 0 0
rhand -5.20702 -383.369 0
rfingers 7.12502 0 0
rthumb 20.5915 307.741 0
2658
root -2.64424 15.0318 -28.4048 1214.42 -68.6937 -139.347
lfemur -39.9184 28.908 -4.37313
ltibia 58.8703 0 0
lfoot 10.0953 9.44199 0
ltoes -5.23049 0 0
rfemur -33.0093 -20.1041 21.1419
rtibia 70.7113 0 0
rfoot -25.6474 -11.4559 0
rtoes -8.09923 0 0
lowerback 16.644 4.55353 1.22118
upperback -0.817617 6.39795 1.45802
thorax -10.1043 3.01552 -0.635722
lowerneck -3.04555 9.8965 1.94001
upperneck 6.34535 13.166 0.131994
head 2.52505 6.60302 0.168161
lclavicle 9.2286e-15 7.6757e-15 0
lhumerus 28.9252 -9.37744 63.286
lradius 109.715 0 0
lwrist -17.9912 0 0
lhand -39.2205 387.483 0
lfingers 7.12502 0 0
lthumb -12.2125 -662.827 0
rclavicle 9.2286e-15 7.6757e-15 0
rhumerus -37.4706 58.3939 -94.0315
rradius 107.904 0 0
rwrist -62.383 0 0
rhand -4.91584 -383.176 0
rfingers 7.12502 0 0
rthumb 20.8714 307.962 0
2659
root -2.76756 15.0188 -28.3751 1218.21 -67.7248 -143.304
lfemur -39.8178 29.2653 -4.16447
ltibia 57.4522 0 0
lfoot 10.8634 9.31095 0
ltoes -4.51382 0 0
rfemur -32.6141 -19.869 20.7921
rtibia 71.0511 0 0
rfoot -25.8835 -11.7209 0
rtoes -8.2227 0 0
lowerback 16.5904 4.68097 1.34646
upperback -0.840758 6.58681 1.39256
thorax -10.0864 3.0968 -0.823793
lowerneck -2.97653 9.95208 2.02846
upperneck 6.48341 13.23 0.112529
head 2.58772 6.63384 0.151872
lclavicle 9.87892e-15 7.33394e-15 0
lhumerus 25.7267 -8.00199 65.1918
lradius 109.486 0 0
lwrist -18.5552 0 0
lhand -39.4144 387.524 0
lfingers 7.12502 0 0
lthumb -12.3998 -662.808 0
rclavicle 9.87892e-15 7.33394e-15 0
rhumerus -38.7694 58.2315 -94.8023
rradius 108.896 0 0
rwrist -64.8022 0 0
rhand -4.62879 -382.993 0
rfingers 7.12502 0 0
rthumb 21.1473 308.173 0
2660
root -2.88813 15.0056 -28.3463 1221.88 -66.7847 -147.132
lfemur -39.733 29.6185 -3.9646
ltibia 56.0881 0 0
lfoot 11.5946 9.17917 0
ltoes -3.84314 0 0
rfemur -32.2322 -19.64 20.4557
rtibia 71.3865 0 0
rfoot -26.1154 -11.9866 0
rtoes -8.34432 0 0
lowerback 16.5389 4.80473 1.46694
upperback -0.865094 6.77016 1.32958
thorax -10.0715 3.17572 -1.0053
lowerneck -2.90938 10.0046 2.11318
upperneck 6.61691 13.2901 0.0956834
head 2.64831 6.6628 0.136772
lclavicle 1.04856e-14 6.99423e-15 0
lhumerus 22.6203 -6.66321 67.0472
lradius 109.255 0 0
lwrist -19.0951 0 0
lhand -39.6005 387.565 0
lfingers 7.12502 0 0
lthumb -12.5796 -662.788 0
rclavicle 1.04856e-14 6.99423e-15 0
rhumerus -40.0322 58.0704 -95.5545
rradius 109.856 0 0
rwrist -67.1509 0 0
rhand -4.34632 -382.821 0
rfingers 7.12502 0 0
rthumb 21.4188 308.374 0
2661
root -3.00564 14.9923 -28.3185 1225.42 -65.8805 -150.818
lfemur -39.6653 29.9665 -3.77401
ltibia 54.7844 0 0
lfoot 12.286 9.04615 0
ltoes -3.22253 0 0
rfemur -31.8651 -19.418 20.1345
rtibia 71.7154 0 0
rfoot -26.3428 -12.252 0
rtoes -8.46444 0 0
lowerback 16.4895 4.92436 1.58225
upperback -0.890654 6.94737 1.2694
thorax -10.06 3.25201 -1.17957
lowerneck -2.84468 10.0547 2.19435
upperneck 6.74535 13.3472 0.0810209
head 2.70651 6.69029 0.122728
lclavicle 1.10436e-14 6.65698e-15 0
lhumerus 19.6219 -5.36491 68.8423
lradius 109.022 0 0
lwrist -19.611 0 0
lhand -39.7791 387.605 0
lfingers 7.12502 0 0
lthumb -12.7522 -662.769 0
rclavicle 1.10436e-14 6.65698e-15 0
rhumerus -41.257 57.9117 -96.2873
rradius 110.781 0 0
rwrist -69.421 0 0
rhand -4.0689 -382.66 0
rfingers 7.12502 0 0
rthumb 21.6855 308.564 0
2662
root -3.11979 14.9789 -28.2918 1228.81 -65.0192 -154.346
lfemur -39.6159 30.3085 -3.59314
ltibia 53.5478 0 0
lfoot 12.9344 8.91141 0
ltoes -2.6561 0 0
rfemur -31.5138 -19.2039 19.8306
rtibia 72.0357 0 0
rfoot -26.5651 -12.5163 0
rtoes -8.58346 0 0
lowerback 16.4425 5.03942 1.692
upperback -0.917465 7.11781 1.21233
thorax -10.0521 3.32537 -1.34589
lowerneck -2.78301 10.1028 2.27212
upperneck 6.86826 13.4019 0.0681074
head 2.76198 6.71673 0.109604
lclavicle 1.15479e-14 6.32261e-15 0
lhumerus 16.7476 -4.11088 70.5676
lradius 108.788 0 0
lwrist -20.1031 0 0
lhand -39.9509 387.642 0
lfingers 7.12502 0 0
lthumb -12.9182 -662.751 0
rclavicle 1.15479e-14 6.32261e-15 0
rhumerus -42.4414 57.7569 -97.0002
rradius 111.665 0 0
rwrist -71.6043 0 0
rhand -3.79698 -382.51 0
rfingers 7.12502 0 0
rthumb 21.9468 308.741 0
2663
root -3.23027 14.9655 -28.2663 1232.05 -64.2078 -157.703
lfemur -39.586 30.6433 -3.42248
ltibia 52.3846 0 0
lfoot 13.5367 8.77444 0
ltoes -2.14793 0 0
rfemur -31.1797 -18.9989 19.546
rtibia 72.3452 0 0
rfoot -26.7821 -12.7782 0
rtoes -8.70175 0 0
lowerback 16.3981 5.14943 1.79584
upperback -0.945556 7.28082 1.15868
thorax -10.048 3.39554 -1.50358
lowerneck -2.72496 10.1494 2.34667
upperneck 6.98514 13.4552 0.0565084
head 2.81439 6.74251 0.0972654
lclavicle 1.19935e-14 5.99154e-15 0
lhumerus 14.0134 -2.90492 72.2134
lradius 108.555 0 0
lwrist -20.5716 0 0
lhand -40.1162 387.677 0
lfingers 7.12502 0 0
lthumb -13.0779 -662.734 0
rclavicle 1.19935e-14 5.99154e-15 0
rhumerus -43.5833 57.6073 -97.6925
rradius 112.505 0 0
rwrist -73.6929 0 0
rhand -3.53102 -382.374 0
rfingers 7.12502 0 0
rthumb 22.2024 308.904 0
